HIERARCHY
ROOT Hips
{
	OFFSET -3.958830 18.904000 13.208200
	CHANNELS 6 Xposition Yposition Zposition Zrotation Yrotation Xrotation 
	JOINT LHipJoint
	{
		OFFSET 0.000000 0.000000 0.000000
		CHANNELS 3 Zrotation Yrotation Xrotation
		JOINT LeftUpLeg
		{
			OFFSET 1.800000 -1.400000 0.085000
			CHANNELS 3 Zrotation Yrotation Xrotation
			JOINT LeftLeg
			{
				OFFSET 2.215000 -6.000000 0.000000
				CHANNELS 3 Zrotation Yrotation Xrotation
				JOINT LeftFoot
				{
					OFFSET 2.500000 -6.900000 0.000000
					CHANNELS 3 Zrotation Yrotation Xrotation
					JOINT LeftToeBase
					{
						OFFSET 0.200000 -0.500000 1.950000
						CHANNELS 3 Zrotation Yrotation Xrotation
						End Site
						{
							OFFSET 0.000000 0.000000 0.000000
						}
					}
				}
			}
		}
	}
	JOINT RHipJoint
	{
		OFFSET 0.000000 0.000000 0.000000
		CHANNELS 3 Zrotation Yrotation Xrotation
		JOINT RightUpLeg
		{
			OFFSET -1.800000 -1.400000 0.085000
			CHANNELS 3 Zrotation Yrotation Xrotation
			JOINT RightLeg
			{
				OFFSET -2.215000 -6.000000 0.000000
				CHANNELS 3 Zrotation Yrotation Xrotation
				JOINT RightFoot
				{
					OFFSET -2.500000 -6.900000 0.000000
					CHANNELS 3 Zrotation Yrotation Xrotation
					JOINT RightToeBase
					{
						OFFSET -0.200000 -0.500000 1.950000
						CHANNELS 3 Zrotation Yrotation Xrotation
						End Site
						{
							OFFSET 0.000000 0.000000 0.000000
						}
					}
				}
			}
		}
	}
	JOINT LowerBack
	{
		OFFSET 0.000000 0.000000 0.000000
		CHANNELS 3 Zrotation Yrotation Xrotation
		JOINT Spine
		{
			OFFSET -0.087000 1.940000 -0.288900
			CHANNELS 3 Zrotation Yrotation Xrotation
			JOINT Spine1
			{
				OFFSET 0.000000 1.950000 0.060000
				CHANNELS 3 Zrotation Yrotation Xrotation
				JOINT Neck
				{
					OFFSET 0.000000 0.000000 0.000000
					CHANNELS 3 Zrotation Yrotation Xrotation
					JOINT Neck1
					{
						OFFSET 0.000000 1.600000 0.340000
						CHANNELS 3 Zrotation Yrotation Xrotation
						JOINT Head
						{
							OFFSET 0.000000 1.667000 -0.240000
							CHANNELS 3 Zrotation Yrotation Xrotation
							End Site
							{
								OFFSET 0.000000 0.000000 0.000000
							}
						}
					}
				}
				JOINT LeftShoulder
				{
					OFFSET 0.000000 0.000000 0.000000
					CHANNELS 3 Zrotation Yrotation Xrotation
					JOINT LeftArm
					{
						OFFSET 2.700000 1.550000 -0.730000
						CHANNELS 3 Zrotation Yrotation Xrotation
						JOINT LeftForeArm
						{
							OFFSET 5.450000 0.000000 0.000000
							CHANNELS 3 Zrotation Yrotation Xrotation
							JOINT LeftHand
							{
								OFFSET 3.450000 0.000000 0.000000
								CHANNELS 3 Zrotation Yrotation Xrotation
								JOINT LeftHandIndex1
								{
									OFFSET 0.750000 0.000000 0.000000
									CHANNELS 3 Zrotation Yrotation Xrotation
									End Site
									{
										OFFSET 0.000000 0.000000 0.000000
									}
								}
							}
						}
					}
				}
				JOINT RightShoulder
				{
					OFFSET 0.000000 0.000000 0.000000
					CHANNELS 3 Zrotation Yrotation Xrotation
					JOINT RightArm
					{
						OFFSET -2.700000 1.550000 -0.730000
						CHANNELS 3 Zrotation Yrotation Xrotation
						JOINT RightForeArm
						{
							OFFSET -5.450000 0.000000 0.000000
							CHANNELS 3 Zrotation Yrotation Xrotation
							JOINT RightHand
							{
								OFFSET -3.450000 0.000000 0.000000
								CHANNELS 3 Zrotation Yrotation Xrotation
								JOINT RightHandIndex1
								{
									OFFSET -0.750000 0.000000 0.000000
									CHANNELS 3 Zrotation Yrotation Xrotation
									End Site
									{
										OFFSET 0.000000 0.000000 0.000000
									}
								}
							}
						}
					}
				}
			}
		}
	}
}
MOTION
Frames: 4
Frame Time: 0.016667
-1.588320 15.907170 -1.771160 -163.678175 -75.708386 162.587541 -15.694335 11.406705 5.880546 5.086920 -7.094415 -58.446325 -0.357521 11.174861 49.741698 0.304198 8.563876 1.224207 0.522910 0.585180 0.338230 18.295156 -8.956454 2.443706 6.759805 5.323616 -0.748472 0.360720 -10.301042 63.516448 -1.995749 -9.699740 1.162112 0.325480 -0.249550 -0.011750 -2.458512 -3.548661 -8.537204 -13.698169 12.138860 31.051532 2.060346 12.177701 6.676389 -2.696887 -13.906022 -13.366543 -40.656621 22.079348 16.705149 -9.320020 11.162390 -28.352950 -2.091292 5.704346 4.626722 -16.708202 9.973892 -2.967907 -123.200535 -60.436356 84.265561 -3.364139 3.652330 0.525110 -0.302510 0.353310 0.100390 7.477849 9.032723 8.478632 32.383760 -10.396456 -12.114496 81.273477 50.849635 30.887981 2.327526 -1.776970 -0.029650 0.305890 -0.116460 -0.125550 
-1.571920 15.829520 -1.746530 -163.588696 -76.474583 162.164221 -15.685100 11.203234 6.085196 5.453233 -8.272063 -59.574025 -0.969996 11.778526 52.128670 0.408778 9.049697 1.062257 0.523090 0.582470 0.366340 18.349130 -8.777558 2.457139 6.893609 5.848319 -2.238806 0.799395 -11.600695 67.018190 -2.149203 -10.272113 0.991116 0.317230 -0.286440 -0.007110 -2.362285 -3.654611 -8.707684 -14.263546 11.918087 33.556100 2.419588 11.446468 5.551987 -2.338283 -13.776713 -13.006791 -39.577900 21.878655 18.129815 -10.772440 11.529830 -28.963370 -5.547638 3.079085 3.455791 -15.307283 7.009006 -4.083665 -112.519206 -63.875832 76.263597 -3.414855 3.471493 0.537560 -0.311140 0.373780 0.082650 10.309026 11.364529 9.149466 31.356457 -9.692545 -12.076846 75.214891 52.749723 29.214099 2.358088 -1.717830 -0.023880 0.287370 -0.121090 -0.144770 
-1.569390 15.758130 -1.723030 -165.199497 -77.246608 163.038249 -15.703549 11.070312 6.214758 5.756705 -9.255188 -59.712077 -2.158745 12.574157 53.812316 0.477125 9.500531 0.926968 0.530470 0.588070 0.391160 18.344767 -8.735269 2.439039 6.461757 6.033162 -2.620445 0.786805 -12.573061 69.767874 -2.263274 -10.749028 0.858669 0.338350 -0.278820 -0.010690 -2.415199 -3.554494 -8.816739 -14.363209 11.324566 35.511780 2.473593 10.568692 4.385823 -2.646717 -13.571258 -12.249446 -38.357334 21.855028 20.386234 -10.991130 11.802150 -28.294080 -9.076436 0.878913 2.534020 -14.214691 4.083144 -4.543700 -95.138918 -67.609005 63.152903 -3.548726 3.257089 0.536390 -0.288130 0.367540 0.078640 14.285438 13.071397 8.984806 28.754000 -6.979214 -11.066577 66.889593 53.017141 25.845082 2.343718 -1.670372 -0.043700 0.303460 -0.122160 -0.163240 
-1.571530 15.710150 -1.700850 -168.229382 -77.701097 165.680978 -15.748049 11.006191 6.342914 6.080534 -10.123249 -59.685447 -3.686923 13.330239 54.435099 0.513254 9.785995 0.837744 0.549080 0.615770 0.410580 18.300239 -8.756982 2.370268 5.977893 5.846113 -2.684262 -0.163330 -12.379941 71.071783 -2.289999 -10.912794 0.800436 0.375810 -0.268780 -0.005020 -2.489438 -3.451897 -8.866353 -14.779807 10.676411 36.604621 2.633663 9.563188 2.881150 -3.182746 -13.377796 -11.241385 -37.477812 22.103879 21.780049 -11.001100 12.141320 -27.299180 -13.510112 -1.421321 1.512002 -13.920206 0.603844 -5.126682 -65.375538 -67.743145 40.090737 -3.529991 3.318523 0.516350 -0.256620 0.356680 0.076200 19.657844 14.720843 8.604316 25.762814 -3.677501 -9.828950 58.455712 51.485341 21.720606 2.311137 -1.660140 -0.051670 0.306450 -0.125310 -0.173060 
